<svg width="35" height="35" viewBox="0 0 35 35" fill="none" xmlns="http://www.w3.org/2000/svg">
<g clip-path="url(#clip0_38_1196)">
<path d="M34.2806 6.14691H31.5243L18.0615 18.8143C17.9252 18.9385 17.716 19.0116 17.5 19.0116C17.2787 19.0116 17.0748 18.9385 16.9345 18.8143L3.47573 6.14691H0.718114C0.440058 6.14691 0.188997 6.26212 0.0715656 6.44646C-0.0499153 6.6308 -0.0148209 6.85021 0.152553 7.0085L16.9372 22.7996C17.0775 22.9249 17.2814 23 17.5027 23C17.7187 23 17.9279 22.9249 18.0642 22.7996L34.8461 7.0075C35.0189 6.85021 35.0459 6.6298 34.9244 6.44546C34.8097 6.26212 34.5559 6.14691 34.2806 6.14691Z" fill="white"/>
</g>
<defs>
<clipPath id="clip0_38_1196">
<rect width="35" height="35" fill="white"/>
</clipPath>
</defs>
</svg>
