<?xml version="1.0" encoding="utf-8"?>

<svg version="1.1" id="Icons" xmlns="http://www.w3.org/2000/svg" xmlns:xlink="http://www.w3.org/1999/xlink" x="0px" y="0px"
	 viewBox="0 0 32 32" style="enable-background:new 0 0 32 32;" xml:space="preserve">
<style type="text/css">
	.st0{fill:none;stroke:#000000;stroke-width:2;stroke-linecap:round;stroke-linejoin:round;stroke-miterlimit:10;}
</style>
<path class="st0" d="M7.4,16c0.7,0.6,1.6,1,2.6,1s1.9-0.4,2.6-1"/>
<path class="st0" d="M19.4,16c0.7,0.6,1.6,1,2.6,1s1.9-0.4,2.6-1"/>
<path class="st0" d="M15.2,19.1c-1.9,0.4-3.2,2-3.2,3.9v0.3c0,1.4,1.7,2.3,2.9,1.5l0,0c0.6-0.4,1.5-0.4,2.1,0l0,0
	c1.3,0.8,2.9-0.1,2.9-1.5v-0.4C20,20.5,17.7,18.6,15.2,19.1z"/>
<path class="st0" d="M10,25c0,1.3-1.1,2.4-2.5,2.4S5,26.3,5,25c0-1.3,2.5-4,2.5-4S10,23.7,10,25z"/>
<path class="st0" d="M5.5,23.7C3.9,21.5,3,18.9,3,16C3,8.8,8.8,3,16,3s13,5.8,13,13s-5.8,13-13,13c-2.6,0-5-0.8-7-2.1"/>
</svg>
