<svg width="55" height="54" viewBox="0 0 55 54" fill="none" xmlns="http://www.w3.org/2000/svg">
<path d="M27.5 0.00171873C12.308 0.00171873 0 12.32 0 27.5017C0 39.6584 7.87875 49.9623 18.798 53.5975C20.1781 53.857 20.6766 53.0062 20.6766 52.2706C20.6766 51.6175 20.6611 49.8902 20.6508 47.5973C12.9972 49.2542 11.385 43.9003 11.385 43.9003C10.132 40.7309 8.32391 39.8802 8.32391 39.8802C5.83516 38.1803 8.52156 38.2164 8.52156 38.2164C11.2784 38.4037 12.7291 41.0437 12.7291 41.0437C15.1817 45.2512 19.1641 44.0344 20.7402 43.3263C20.9808 41.5542 21.6975 40.3356 22.4778 39.6567C16.3728 38.9675 9.95328 36.6042 9.95328 26.0666C9.95328 23.057 11.0189 20.6061 12.7806 18.6811C12.4764 17.9919 11.5448 15.1903 13.023 11.4022C13.023 11.4022 15.3244 10.6683 20.5855 14.2227C22.7872 13.6125 25.1247 13.3083 27.4605 13.2928C29.798 13.3083 32.1337 13.6142 34.3355 14.2227C39.5656 10.6683 41.8653 11.4022 41.8653 11.4022C43.3417 15.1903 42.4102 17.9902 42.142 18.6811C43.8866 20.6061 44.9522 23.0587 44.9522 26.0666C44.9522 36.6283 38.5241 38.9572 32.4122 39.6292C33.3678 40.4525 34.2633 42.1455 34.2633 44.715C34.2633 48.3931 34.2289 51.3562 34.2289 52.2517C34.2289 52.9667 34.7102 53.8261 36.1264 53.5494C47.1264 49.952 54.9966 39.6395 54.9966 27.5C54.9966 12.3183 42.6886 0 27.4966 0L27.5 0.00171873Z" fill="white"/>
</svg>
