<svg width="55" height="55" viewBox="0 0 55 55" fill="none" xmlns="http://www.w3.org/2000/svg">
<path d="M12.0684 22.377C14.2056 15.901 20.2915 11.25 27.5 11.25C31.375 11.25 34.875 12.625 37.625 14.875L45.625 6.875C40.75 2.625 34.5 0 27.5 0C16.6606 0 7.32821 6.1836 2.84167 15.2396L12.0684 22.377Z" fill="#EA4335"/>
<path d="M36.76 41.2788C34.2625 42.8915 31.0889 43.75 27.5 43.75C20.319 43.75 14.2521 39.1345 12.093 32.6972L2.83582 39.726C7.31678 48.7979 16.6489 55 27.5 55C34.221 55 40.6435 52.6107 45.4533 48.124L36.76 41.2788Z" fill="#34A853"/>
<path d="M45.4534 48.124C50.4835 43.4319 53.75 36.4459 53.75 27.5C53.75 25.875 53.5 24.125 53.125 22.5H27.5V33.125H42.25C41.5222 36.6979 39.5686 39.4653 36.76 41.2788L45.4534 48.124Z" fill="#4A90E2"/>
<path d="M12.0931 32.6972C11.5462 31.0666 11.25 29.319 11.25 27.5C11.25 25.7085 11.5373 23.9864 12.0684 22.377L2.84164 15.2396C1.00051 18.9301 0 23.0894 0 27.5C0 31.899 1.01929 36.0483 2.83585 39.726L12.0931 32.6972Z" fill="#FBBC05"/>
</svg>
