<svg width="29" height="25" viewBox="0 0 29 25" fill="none" xmlns="http://www.w3.org/2000/svg">
<path d="M15.4798 2.72744L14.8023 3.40382L14.4347 3.7708L14.082 3.38949L13.4599 2.71699C11.7284 0.988363 9.21589 0.200963 6.84659 0.603267L6.84509 0.603522C3.18485 1.21356 0.5 4.38181 0.5 8.09665V8.42517C0.5 10.6373 1.41852 12.7534 3.03645 14.2616L3.03673 14.2618L13.2722 23.8171C13.2722 23.8171 13.2722 23.8171 13.2723 23.8171C13.6042 24.1269 14.0429 24.3 14.5 24.3C14.9571 24.3 15.3958 24.1269 15.7278 23.8171L25.9627 14.2618L25.9632 14.2613C27.583 12.7534 28.5 10.6376 28.5 8.42517V8.09665C28.5 4.38178 25.8163 1.21361 22.155 0.603538L15.4798 2.72744ZM15.4798 2.72744C17.2656 0.988208 19.7336 0.200521 22.1549 0.603524L15.4798 2.72744ZM14.456 6.18176L12.2606 3.89853L12.2536 3.89127L12.2464 3.8843C10.9052 2.5975 9.00255 1.98671 7.12831 2.29847L7.1281 2.2985C4.29553 2.77091 2.21875 5.22432 2.21875 8.09665V8.42517C2.21875 10.1605 2.93918 11.8225 4.20954 13.0049C4.20965 13.005 4.20976 13.0051 4.20987 13.0052L14.1588 22.2938L14.5 22.6123L14.8412 22.2938L24.7927 13.005C26.0614 11.8225 26.7812 10.1605 26.7812 8.42517V8.09665C26.7812 5.22409 24.7014 2.77092 21.872 2.29852L21.8717 2.29847C19.9974 1.98671 18.0948 2.5975 16.7536 3.8843L16.7536 3.88422L16.7463 3.89154L14.456 6.18176Z" fill="#B1B2FF" stroke="#B1B2FF"/>
</svg>
