<svg width="43" height="43" viewBox="0 0 43 43" fill="none" xmlns="http://www.w3.org/2000/svg">
<circle cx="21.5" cy="21.5" r="21.5" fill="#FCFCFC"/>
<path d="M22.4798 11.7274L21.8023 12.4038L21.4347 12.7708L21.082 12.3895L20.4599 11.717C18.7284 9.98836 16.2159 9.20096 13.8466 9.60327L13.8451 9.60352C10.1849 10.2136 7.5 13.3818 7.5 17.0967V17.4252C7.5 19.6373 8.41852 21.7534 10.0365 23.2616L10.0367 23.2618L20.2722 32.8171C20.2722 32.8171 20.2722 32.8171 20.2723 32.8171C20.6042 33.1269 21.0429 33.3 21.5 33.3C21.9571 33.3 22.3958 33.1269 22.7278 32.8171L32.9627 23.2618L32.9632 23.2613C34.583 21.7534 35.5 19.6376 35.5 17.4252V17.0967C35.5 13.3818 32.8163 10.2136 29.155 9.60354L22.4798 11.7274ZM22.4798 11.7274C24.2656 9.98821 26.7336 9.20052 29.1549 9.60352L22.4798 11.7274ZM21.456 15.1818L19.2606 12.8985L19.2536 12.8913L19.2464 12.8843C17.9052 11.5975 16.0026 10.9867 14.1283 11.2985L14.1281 11.2985C11.2955 11.7709 9.21875 14.2243 9.21875 17.0967V17.4252C9.21875 19.1605 9.93918 20.8225 11.2095 22.0049C11.2097 22.005 11.2098 22.0051 11.2099 22.0052L21.1588 31.2938L21.5 31.6123L21.8412 31.2938L31.7927 22.005C33.0614 20.8225 33.7812 19.1605 33.7812 17.4252V17.0967C33.7812 14.2241 31.7014 11.7709 28.872 11.2985L28.8717 11.2985C26.9975 10.9867 25.0948 11.5975 23.7536 12.8843L23.7536 12.8842L23.7463 12.8915L21.456 15.1818Z" fill="#B1B2FF" stroke="#B1B2FF"/>
</svg>
