<svg width="29" height="25" viewBox="0 0 29 25" fill="none" xmlns="http://www.w3.org/2000/svg">
<path d="M3.03678 14.2614L3.0373 14.2619L13.2722 23.8171C13.6042 24.127 14.0429 24.3 14.5 24.3C14.9571 24.3 15.3958 24.127 15.7278 23.8171L25.9627 14.2619L25.9632 14.2614C27.583 12.7535 28.5 10.6376 28.5 8.42524V8.09673C28.5 4.38198 25.8164 1.21478 22.1549 0.603595L3.03678 14.2614ZM3.03678 14.2614C1.41696 12.7535 0.5 10.6376 0.5 8.42524V8.09673C0.5 4.38198 3.18363 1.21478 6.84509 0.603595L3.03678 14.2614ZM14.5 3.75715L14.1464 3.4036L13.4668 2.72391C11.7345 0.991635 9.2687 0.199698 6.84521 0.603576L14.5 3.75715ZM14.5 3.75715L14.8536 3.4036M14.5 3.75715L14.8536 3.4036M14.8536 3.4036L15.5332 2.72391C17.2655 0.991635 19.7313 0.199699 22.1548 0.603576L14.8536 3.4036Z" fill="#B1B2FF" stroke="#B1B2FF"/>
</svg>
