<svg width="45" height="43" viewBox="0 0 45 43" fill="none" xmlns="http://www.w3.org/2000/svg">
<ellipse cx="22.2563" cy="21.5" rx="22.2563" ry="21.5" fill="#FCFCFC"/>
<path d="M22.5506 12.4099L23.252 11.7334C25.1034 9.99154 27.6671 9.19897 30.1861 9.60397C33.9959 10.2172 36.7663 13.3952 36.7663 17.0967V17.4252C36.7663 19.6315 35.8199 21.7458 34.141 23.2555L34.1405 23.256L23.5456 32.8112C23.1995 33.1232 22.739 33.3 22.2563 33.3C21.7735 33.3 21.313 33.1233 20.967 32.8113C20.967 32.8113 20.967 32.8113 20.9669 32.8112L10.3714 23.256L10.3711 23.2558C8.69429 21.7458 7.74622 19.6313 7.74622 17.4252V17.0967C7.74622 13.3953 10.5178 10.2172 14.3265 9.60397L14.3279 9.60373C16.793 9.19938 19.4031 9.99171 21.1983 11.7232L21.8424 12.3958L22.1894 12.7582L22.5506 12.4099ZM19.9194 12.8924L19.9123 12.8852L19.9049 12.8784C18.5195 11.5943 16.5589 10.9882 14.6309 11.298L14.6307 11.2981C11.7182 11.7673 9.5606 14.2108 9.5606 17.0967V17.4252C9.5606 19.1666 10.3092 20.8302 11.6223 22.0109C11.6224 22.0109 11.6224 22.011 11.6225 22.0111L21.9214 31.2996L22.2562 31.6016L22.5911 31.2996L32.8926 22.0108C34.204 20.8301 34.9519 19.1665 34.9519 17.4252V17.0967C34.9519 14.2106 32.7912 11.7673 29.8819 11.2981L29.8817 11.298C27.9537 10.9882 25.9931 11.5943 24.6076 12.8784L24.6076 12.8783L24.6001 12.8855L22.2104 15.194L19.9194 12.8924Z" fill="#B1B2FF" stroke="#B1B2FF"/>
</svg>
