<svg width="47" height="47" viewBox="0 0 47 47" fill="none" xmlns="http://www.w3.org/2000/svg">
<path d="M43.7413 3.14863C41.7124 1.11973 39.0135 0 36.152 0C33.2809 0 30.5821 1.11973 28.5532 3.14863L3.57468 28.1271C3.29714 28.4047 3.11531 28.7492 3.03874 29.132L0.0336662 44.5689C-0.0907478 45.2102 0.13894 45.8418 0.569604 46.3203C1.21081 47.0477 2.19656 46.885 2.32097 46.8563L17.7579 43.8512C18.1407 43.7746 18.4948 43.5928 18.7628 43.3152L43.7413 18.3367C47.9331 14.1545 47.9331 7.33086 43.7413 3.14863ZM16.4276 40.1283L4.42644 42.473L6.76159 30.4719L26.5817 10.6518L36.2477 20.3178L16.4276 40.1283ZM40.985 15.5805L39.0135 17.552L29.3475 7.88594L31.319 5.91445C35.6831 2.08633 39.5303 4.45977 40.985 5.91445C43.6456 8.575 43.6456 12.9104 40.985 15.5805Z" fill="white"/>
</svg>
